<svg xmlns="http://www.w3.org/2000/svg" id="icon-door-4-active" x="0" y="0" version="1.0" viewBox="0 0 66.5 74" xml:space="preserve"><style>.st0{fill:#373737}</style><path d="M66.5 4.5V0H0v4.5h9.8v65H0V74h66.5v-4.5h-9.8v-65h9.8zM1 3.5V1h64.5v2.5H1zm51.8 64.2l-2.1 1.8H44l8.8-7.8v6zm0 1.4v.4h-.5l.5-.4zm-9-61.9l3.1-2.7h5.7l-8.8 7.8V7.2zm0-1.4V4.5h1.5l-1.5 1.3zm9 54.5l-9 7.9v-5.6l9-7.9v5.6zm0-7l-9 7.9v-5.6l9-7.9v5.6zm0-7l-9 7.9v-5.6l9-7.9v5.6zm0-7l-9 7.9v-5.6l9-7.9v5.6zm0-7l-9 7.9v-5.5l9-7.9v5.5zm0-7l-9 7.9v-5.6l9-7.9v5.6zm0-7l-9 7.9v-5.6l9-7.9v5.6zm0-7l-9 7.9v-5.6l9-7.9v5.6zm-42-6.8h6v2h1v-2h2v1h1v-1h22v65h-22v-3h-1v3h-2v-2h-1v2h-6v-65zm54.7 66V73H1v-2.5h64.5zm-9.7-1h-2v-65h2v65z" class="st0"/><path d="M19.8 22.5h1v3h-1zM19.8 30.5h1v3h-1zM19.8 26.5h1v3h-1zM19.8 14.5h1v3h-1zM19.8 34.5h1v3h-1zM19.8 6.5h1v3h-1zM19.8 10.5h1v3h-1zM19.8 18.5h1v3h-1zM16.8 31.5h1v3h-1zM16.8 63.5h1v3h-1zM16.8 27.5h1v3h-1zM16.8 23.5h1v3h-1zM16.8 39.5h1v3h-1zM16.8 51.5h1v3h-1zM16.8 55.5h1v3h-1zM16.8 43.5h1v3h-1zM16.8 59.5h1v3h-1zM16.8 47.5h1v3h-1zM16.8 19.5h1v3h-1zM16.8 35.5h1v3h-1zM19.8 54.5h1v3h-1zM19.8 58.5h1v3h-1zM19.8 50.5h1v3h-1zM16.8 15.5h1v3h-1zM19.8 42.5h1v3h-1zM19.8 46.5h1v3h-1zM19.8 62.5h1v3h-1zM19.8 38.5h1v3h-1zM16.8 11.5h1v3h-1zM16.8 7.5h1v3h-1zM40.8 33.5h-9v3h9v-3zm-1 2h-7v-1h7v1z" class="st0"/></svg>