<svg xmlns="http://www.w3.org/2000/svg" version="1.0" viewBox="0 0 18 18"><path fill="#373737" d="M1.1 14.5c.5-.4 3-2.1 3.5-2.4.1 0 .3 0 .4.1.2.1.8.4 1.6.9l.6.4.5-.5c1-.7 1.9-1.6 2.8-2.5.9-.9 1.7-1.8 2.5-2.8l.4-.6-.4-.6c-.2-.5-.7-1.3-.8-1.5-.1-.1-.1-.2-.1-.4.3-.4 2-3.1 2.3-3.5.1 0 .2 0 .3.1.8.6 1.6 1.3 2.2 2.1-.1 2.1-2 5.1-5.2 8.3s-6.2 5.1-8.3 5.2c-.8-.6-1.6-1.3-2.1-2.2-.2.1-.2 0-.2-.1m-1.1 0c0 .3.1.6.3.9 0 0 1.9 2.7 3 2.6 3.1-.1 6.7-3.1 9.2-5.5s5.5-6.1 5.6-9.1c0-1.1-2.6-3-2.7-3-.5-.5-1.3-.4-1.8.1-.2.3-2.2 3.3-2.4 3.7-.2.1-.2.3-.2.5 0 .3.1.6.2.9.2.3.7 1.2.9 1.6-.7 1-1.5 1.8-2.3 2.7-.8.9-1.7 1.6-2.7 2.3-.4-.2-1.3-.7-1.6-.9-.4-.3-1-.3-1.5-.1L.4 13.6c-.3.2-.4.5-.4.9z"/></svg>